<svg width="808" height="885" viewBox="0 0 808 885" fill="none" xmlns="http://www.w3.org/2000/svg">
<g filter="url(#filter0_f_34_188605)">
<path fill-rule="evenodd" clip-rule="evenodd" d="M186.704 136.058L331.318 324.086L241.129 439.962L6 136.058H186.704Z" fill="url(#paint0_linear_34_188605)" stroke="url(#paint1_linear_34_188605)"/>
<path d="M627.013 -57V-58H626.523L626.223 -57.6131L627.013 -57ZM6.1647 742.913L5.37473 742.299L4.1227 743.913H6.1647V742.913ZM780.032 -57L780.827 -56.394L782.05 -58H780.032V-57ZM412.287 425.77L411.491 425.164L411.025 425.775L411.496 426.382L412.287 425.77ZM807.792 936V937H809.832L808.582 935.388L807.792 936ZM615.485 936L614.689 936.606L614.989 937H615.485V936ZM319.555 547.506L320.351 546.9L319.555 545.856L318.76 546.9L319.555 547.506ZM170.706 742.913V743.913H171.202L171.502 743.518L170.706 742.913ZM626.223 -57.6131L5.37473 742.299L6.95468 743.526L627.803 -56.3869L626.223 -57.6131ZM780.032 -58H627.013V-56H780.032V-58ZM413.082 426.376L780.827 -56.394L779.236 -57.606L411.491 425.164L413.082 426.376ZM808.582 935.388L413.077 425.157L411.496 426.382L807.002 936.613L808.582 935.388ZM615.485 937H807.792V935H615.485V937ZM318.76 548.112L614.689 936.606L616.28 935.394L320.351 546.9L318.76 548.112ZM171.502 743.518L320.351 548.112L318.76 546.9L169.911 742.307L171.502 743.518ZM6.1647 743.913H170.706V741.913H6.1647V743.913Z" fill="url(#paint2_linear_34_188605)" fill-opacity="0.6"/>
</g>
<defs>
<filter id="filter0_f_34_188605" x="0.122711" y="-62" width="813.71" height="1003" filterUnits="userSpaceOnUse" color-interpolation-filters="sRGB">
<feFlood flood-opacity="0" result="BackgroundImageFix"/>
<feBlend mode="normal" in="SourceGraphic" in2="BackgroundImageFix" result="shape"/>
<feGaussianBlur stdDeviation="2" result="effect1_foregroundBlur_34_188605"/>
</filter>
<linearGradient id="paint0_linear_34_188605" x1="168.659" y1="136.058" x2="168.659" y2="439.962" gradientUnits="userSpaceOnUse">
<stop stop-color="#033E3E"/>
<stop offset="1" stop-color="#192839" stop-opacity="0.2"/>
</linearGradient>
<linearGradient id="paint1_linear_34_188605" x1="168.659" y1="136.058" x2="168.659" y2="439.962" gradientUnits="userSpaceOnUse">
<stop stop-color="#48D08C" stop-opacity="0.4"/>
<stop offset="1" stop-color="#4AC889" stop-opacity="0"/>
</linearGradient>
<linearGradient id="paint2_linear_34_188605" x1="139.42" y1="15.6951" x2="668.188" y2="700.143" gradientUnits="userSpaceOnUse">
<stop stop-color="#48D08C" stop-opacity="0.45"/>
<stop offset="0.864509" stop-color="#44C284" stop-opacity="0"/>
</linearGradient>
</defs>
</svg>
